<?xml version="1.0" encoding="UTF-8"?>
<svg width="32" height="32" viewBox="0 0 32 32" fill="none" xmlns="http://www.w3.org/2000/svg">
  <!-- Background Circle -->
  <circle cx="16" cy="16" r="16" fill="url(#gradient)" />
  
  <!-- Book Icon -->
  <path d="M10 8h12c1.657 0 3 1.343 3 3v10c0 1.657-1.343 3-3 3H10c-1.657 0-3-1.343-3-3V11c0-1.657 1.343-3 3-3z" fill="white"/>
  <path d="M10 8v16h12c1.657 0 3-1.343 3-3V11c0-1.657-1.343-3-3-3H10z" fill="white" fill-opacity="0.8"/>
  
  <!-- Globe Icon -->
  <path d="M16 6c5.523 0 10 4.477 10 10s-4.477 10-10 10S6 21.523 6 16 10.477 6 16 6zm0 2c-4.418 0-8 3.582-8 8s3.582 8 8 8 8-3.582 8-8-3.582-8-8-8z" fill="white" fill-opacity="0.6"/>
  
  <!-- Gradient Definition -->
  <defs>
    <linearGradient id="gradient" x1="0" y1="0" x2="32" y2="32" gradientUnits="userSpaceOnUse">
      <stop offset="0%" stop-color="#024950"/>
      <stop offset="100%" stop-color="#0FA4AF"/>
    </linearGradient>
  </defs>
</svg> 